<?xml version="1.0" standalone="no"?>
<!DOCTYPE svg PUBLIC "-//W3C//DTD SVG 20010904//EN"
 "http://www.w3.org/TR/2001/REC-SVG-20010904/DTD/svg10.dtd">
<svg version="1.0" xmlns="http://www.w3.org/2000/svg"
 width="700.000000pt" height="700.000000pt" viewBox="0 0 700.000000 700.000000"
 preserveAspectRatio="xMidYMid meet">
<metadata>
Created by potrace 1.14, written by Peter Selinger 2001-2017
</metadata>
<g transform="translate(0.000000,700.000000) scale(0.100000,-0.100000)"
fill="#000000" stroke="none">
<path d="M4777 6550 c-214 -36 -426 -160 -559 -327 -270 -339 -347 -810 -199
-1211 37 -100 512 -1109 559 -1187 178 -297 450 -497 792 -583 91 -23 126 -26
265 -26 125 -1 175 3 229 18 267 72 477 240 597 478 144 286 128 610 -42 886
-88 144 -198 248 -368 348 -136 80 -211 182 -234 321 -9 51 -8 86 6 181 29
198 19 329 -37 495 -49 142 -113 244 -226 357 -138 137 -280 212 -470 246 -82
15 -237 16 -313 4z m858 -1092 c26 -30 26 -33 20 -127 -15 -202 56 -339 241
-471 44 -31 49 -40 52 -77 4 -53 -11 -81 -53 -98 -42 -18 -76 -9 -153 44 -122
83 -230 236 -267 381 -19 71 -24 208 -12 282 11 64 46 98 102 98 36 0 48 -5
70 -32z"/>
<path d="M2435 6543 c-265 -31 -519 -198 -666 -437 -64 -105 -103 -207 -130
-342 -27 -136 -56 -198 -126 -274 -70 -76 -146 -114 -278 -139 -288 -55 -508
-200 -657 -431 -228 -354 -166 -839 144 -1136 315 -302 860 -359 1303 -136
161 81 204 118 701 616 526 526 556 561 644 761 162 371 134 822 -70 1126
-183 271 -537 432 -865 392z m-524 -843 c33 -18 52 -67 44 -118 -8 -55 -48
-169 -77 -220 -87 -152 -247 -275 -413 -317 -85 -22 -118 -19 -154 11 -26 21
-31 33 -31 69 0 58 32 89 109 104 179 35 321 175 367 361 8 36 21 72 27 81 28
36 88 50 128 29z"/>
<path d="M3255 3815 c-384 -85 -658 -381 -716 -775 -15 -105 -7 -254 22 -389
19 -92 20 -111 10 -175 -24 -144 -88 -233 -243 -337 -206 -139 -344 -333 -409
-575 -31 -112 -31 -316 0 -429 44 -165 135 -318 257 -436 178 -169 383 -252
629 -251 446 0 865 258 1079 663 65 122 482 1160 510 1270 101 386 19 775
-231 1097 -134 172 -327 293 -535 336 -94 19 -288 20 -373 1z m-384 -1095 c30
-16 47 -59 59 -149 29 -216 -49 -427 -215 -579 -98 -90 -146 -108 -205 -77
-36 19 -57 77 -41 117 5 15 34 45 64 66 148 110 219 257 202 421 -15 140 -13
161 18 187 30 26 84 32 118 14z"/>
</g>
</svg>
